<svg xmlns="http://www.w3.org/2000/svg" xml:space="preserve" width="800" height="800" data-version="2">
    <path fill="#FFF" fill-rule="evenodd" d="M553.986 229.322c-7.134 1.076-13.798-3.83-14.862-10.964-1.075-7.135 3.83-13.788 10.965-14.874 7.134-1.075 13.787 3.83 14.873 10.976 1.075 7.146-3.841 13.798-10.976 14.862m-18.233-60.278c-52.484 7.94-79.408 62.25-99.132 101.931-5.073 10.192-9.62 19.421-13.977 26.41-23.039 36.803-55.832 66.18-90.519 97.26-34.45 30.834-69.876 62.575-98.313 103.88 23.486-8.444 51.072-16.004 69.35-23.855 26.197-11.256 55.026-19.959 79.072-33.668 20.474-11.67 39.312-24.908 54.97-40.824 9.878-10.024 18.077-19.97 24.393-29.5 5.421-8.176 10.35-17.943 14.056-27.07 2.632-6.474 9.767-8.177 10.461-.36.213 2.532.045 5.354-.403 8.378-1.456 9.688-5.925 21.336-10.875 31.148-7.011 13.888-16.363 25.3-27.463 36.176-15.758 15.467-34.272 28.268-54.219 39.547-25.088 14.18-54.98 23.072-82.04 34.697-22.69 9.767-57.433 18.38-82.017 28.583-6.72 2.789-12.567 5.69-18.626 9.52-27.53 17.561-55.72 39.838-87.214 68.902-5.31 4.872-3.91 13.541 2.62 16.565 23.218 10.685 44.61 15.31 64.524 15.31 55.361 0 99.265-35.873 138.633-77.728 33.477-.448 64.792-4.905 93.173-13.115l6.07 33.354h-21.156c-5.556 0-10.092 4.502-10.092 10.08 0 5.566 4.514 10.091 10.092 10.091l82.107.022c5.555 0 10.069-4.513 10.069-10.08 0-5.577-4.492-10.09-10.07-10.09l-40.42-.012-7.246-39.704c34.406-12.678 63.75-31.326 86.34-55.35 38.685-41.194 56.236-95.76 52.103-162.176-1.4-22.804 5.286-39.492 11.726-55.642 2.912-7.28 5.746-14.358 7.583-21.571 13.496-33.443 44.71-46.155 78.646-55.07 2.554-.65 2.778-4.167.37-5.186-36.703-15.467-86.364-11.536-127.983-11.447-4.973 0-9.632-.134-14.593.594"/>
</svg>
