<svg xmlns="http://www.w3.org/2000/svg" version="1.1" xmlns:xlink="http://www.w3.org/1999/xlink" width="2000" height="292" viewBox="0 0 2000 292"><svg xml:space="preserve" width="2000" height="292" data-version="2" data-id="lg_0oy01hxWl3k73vIbKv" viewBox="0 0 563 82" x="0" y="0">
    <path fill="#F5F5F5" d="M127 60.91V6.24h23.41q3.62 0 6.62 1.5 3.01 1.5 5.24 4 2.23 2.5 3.46 5.62 1.24 3.12 1.24 6.36 0 3.77-1.43 7.16-1.42 3.38-4 5.77-2.58 2.39-6.05 3.31l13.25 20.95h-7.86l-12.47-19.64h-14.48v19.64Zm6.93-25.8h16.56q2.85 0 4.96-1.58 2.12-1.58 3.31-4.19 1.2-2.62 1.2-5.62 0-3.08-1.39-5.66-1.38-2.58-3.62-4.12-2.23-1.54-4.92-1.54h-16.1Z"></path>
    <rect width="41.74" height="54.67" x="-20.87" y="-27.335" fill="none" rx="0" ry="0" transform="matrix(1 0 0 1 148.37 34.075)"></rect>
    <path fill="#F5F5F5" d="M172.74 49.28q0-3.85 2.19-6.66 2.2-2.81 6.05-4.35 3.85-1.54 8.93-1.54 2.7 0 5.7.42 3 .43 5.31 1.27V35.5q0-4.62-2.77-7.28t-7.85-2.66q-3.31 0-6.36 1.2-3.04 1.19-6.43 3.42l-2.46-4.77q3.93-2.7 7.85-4.04 3.93-1.35 8.17-1.35 7.7 0 12.16 4.27 4.47 4.28 4.47 11.9v17.02q0 1.23.5 1.81.5.57 1.65.65v5.24q-1 .15-1.73.23-.73.07-1.19.07-2.39 0-3.58-1.3-1.2-1.31-1.35-2.78l-.15-2.54q-2.62 3.39-6.86 5.24-4.23 1.85-8.39 1.85-4 0-7.16-1.66-3.16-1.65-4.93-4.47-1.77-2.81-1.77-6.27m26.18 2.85q.92-1.08 1.46-2.2.54-1.11.54-1.88v-5.01q-2.38-.92-5-1.42-2.62-.5-5.16-.5-5.16 0-8.36 2.04-3.19 2.04-3.19 5.58 0 1.93 1.04 3.73 1.04 1.81 3.08 2.97 2.04 1.15 5.04 1.15 3.16 0 6.01-1.27 2.85-1.27 4.54-3.19"></path>
    <rect width="37.11" height="41.66" x="-18.555" y="-20.83" fill="none" rx="0" ry="0" transform="matrix(1 0 0 1 191.795 41.35)"></rect>
    <path fill="#F5F5F5" d="m228.8 60.91-15.79-40.2h7.09l12.62 33.73 12.63-33.73h6.62l-15.78 40.2Z"></path>
    <rect width="38.96" height="40.2" x="-19.48" y="-20.1" fill="none" rx="0" ry="0" transform="matrix(1 0 0 1 232.99 41.31)"></rect>
    <path fill="#F5F5F5" d="M275.15 61.68q-4.54 0-8.28-1.66-3.73-1.65-6.47-4.54-2.73-2.89-4.23-6.66-1.5-3.78-1.5-8.01 0-5.7 2.62-10.4 2.61-4.69 7.27-7.54 4.66-2.85 10.67-2.85 6.08 0 10.58 2.89 4.51 2.88 7.01 7.54t2.5 10.05q0 .77-.03 1.5-.04.73-.12 1.12h-33.34q.31 3.93 2.19 6.97 1.89 3.04 4.89 4.77 3.01 1.73 6.47 1.73 3.7 0 6.97-1.84 3.27-1.85 4.5-4.85l5.86 1.61q-1.31 2.93-3.89 5.24t-6.09 3.62q-3.5 1.31-7.58 1.31M261.6 38.42h27.41q-.31-3.92-2.23-6.93-1.93-3-4.93-4.69-3-1.7-6.62-1.7-3.54 0-6.55 1.7-3 1.69-4.89 4.69-1.88 3.01-2.19 6.93"></path>
    <rect width="40.65" height="41.66" x="-20.325" y="-20.83" fill="none" rx="0" ry="0" transform="matrix(1 0 0 1 275.495 41.35)"></rect>
    <path fill="#F5F5F5" d="M337.75 60.91h-6.77V38.42q0-6.39-1.97-9.35-1.96-2.97-5.97-2.97-2.77 0-5.5 1.39-2.73 1.38-4.85 3.73-2.12 2.35-3.04 5.43v24.26h-6.78v-40.2h6.16v8.63q1.62-2.85 4.16-4.93 2.54-2.08 5.77-3.24 3.24-1.15 6.78-1.15 3.46 0 5.81 1.27 2.35 1.27 3.7 3.54t1.92 5.35q.58 3.08.58 6.7Z"></path>
    <rect width="34.88" height="40.89" x="-17.44" y="-20.445" fill="none" rx="0" ry="0" transform="matrix(1 0 0 1 320.81 40.965)"></rect>
    <path fill="#F5F5F5" d="M370.94 61.29q-5.39 0-10.05-2.35-4.66-2.35-8.12-6.31-3.47-3.97-5.39-8.93-1.93-4.97-1.93-10.28 0-5.55 1.93-10.51 1.92-4.97 5.35-8.82 3.42-3.85 8.08-6.04 4.66-2.2 10.13-2.2 7.93 0 13.09 3.31t7.78 8.63l-5.32 3.69q-2.38-4.77-6.54-7.08-4.16-2.31-9.17-2.31-4.15 0-7.54 1.77-3.39 1.77-5.82 4.81-2.42 3.04-3.69 6.89-1.27 3.85-1.27 8.01 0 4.39 1.42 8.28 1.43 3.89 4.05 6.85 2.61 2.97 6.08 4.66 3.46 1.69 7.47 1.69 4.69 0 8.93-2.38 4.23-2.39 8.01-7.32v7.16q-7.39 8.78-17.48 8.78m16.63-22.41h-11.78v-5.23h17.63v27.26h-5.85Z"></path>
    <rect width="47.97" height="55.44" x="-23.985" y="-27.72" fill="none" rx="0" ry="0" transform="matrix(1 0 0 1 369.935 34.07)"></rect>
    <path fill="#F5F5F5" d="M424.15 26.64q-5.09.08-8.98 2.58-3.88 2.5-5.5 6.89v24.8h-6.78v-40.2h6.32v9.32q2.08-4.16 5.5-6.74 3.43-2.58 7.2-2.89h1.31q.54 0 .93.08Z"></path>
    <rect width="21.26" height="40.51" x="-10.63" y="-20.255" fill="none" rx="0" ry="0" transform="matrix(1 0 0 1 414.02 41.155)"></rect>
    <path fill="#F5F5F5" d="M427.69 49.28q0-3.85 2.19-6.66 2.2-2.81 6.05-4.35 3.85-1.54 8.93-1.54 2.69 0 5.7.42 3 .43 5.31 1.27V35.5q0-4.62-2.77-7.28t-7.86-2.66q-3.31 0-6.35 1.2-3.04 1.19-6.43 3.42L430 25.41q3.92-2.7 7.85-4.04 3.93-1.35 8.16-1.35 7.7 0 12.17 4.27 4.47 4.28 4.47 11.9v17.02q0 1.23.5 1.81.5.57 1.65.65v5.24q-1 .15-1.73.23-.73.07-1.19.07-2.39 0-3.59-1.3-1.19-1.31-1.34-2.78l-.16-2.54q-2.61 3.39-6.85 5.24-4.23 1.85-8.39 1.85-4.01 0-7.16-1.66-3.16-1.65-4.93-4.47-1.77-2.81-1.77-6.27m26.18 2.85q.92-1.08 1.46-2.2.54-1.11.54-1.88v-5.01q-2.39-.92-5.01-1.42-2.61-.5-5.15-.5-5.16 0-8.36 2.04-3.19 2.04-3.19 5.58 0 1.93 1.03 3.73 1.04 1.81 3.08 2.97 2.05 1.15 5.05 1.15 3.16 0 6-1.27 2.85-1.27 4.55-3.19"></path>
    <rect width="37.11" height="41.66" x="-18.555" y="-20.83" fill="none" rx="0" ry="0" transform="matrix(1 0 0 1 446.745 41.35)"></rect>
    <path fill="#F5F5F5" d="M495.14 61.68q-4.93 0-8.78-2.47-3.85-2.46-6.08-6.23v24.33h-6.78v-56.6h6.01v7.55q2.39-3.7 6.24-5.97 3.85-2.27 8.39-2.27 4.16 0 7.62 1.69 3.47 1.7 6.01 4.62 2.54 2.93 3.96 6.66 1.43 3.74 1.43 7.82 0 5.7-2.27 10.47-2.28 4.78-6.36 7.59-4.08 2.81-9.39 2.81m-2.08-5.86q3 0 5.43-1.27 2.42-1.27 4.16-3.38 1.73-2.12 2.65-4.82.93-2.69.93-5.54 0-3-1.04-5.7-1.04-2.69-2.93-4.77-1.88-2.08-4.39-3.28-2.5-1.19-5.43-1.19-1.84 0-3.81.69-1.96.7-3.73 1.97t-3 2.89q-1.24 1.61-1.62 3.46v11.47q1.15 2.62 3.08 4.78 1.92 2.15 4.46 3.42 2.55 1.27 5.24 1.27"></path>
    <rect width="39.66" height="57.29" x="-19.83" y="-28.645" fill="none" rx="0" ry="0" transform="matrix(1 0 0 1 493.83 49.165)"></rect>
    <path fill="#F5F5F5" d="M556.35 60.91h-6.77V38.42q0-6.16-2.2-9.24-2.19-3.08-6.27-3.08-2.62 0-5.28 1.39-2.65 1.38-4.65 3.73-2.01 2.35-2.93 5.43v24.26h-6.78V4.7h6.78v24.64q2.39-4.32 6.51-6.82 4.12-2.5 8.89-2.5 3.62 0 6.04 1.27 2.43 1.27 3.89 3.58 1.47 2.31 2.12 5.35.65 3.04.65 6.66Z"></path>
    <rect width="34.88" height="56.21" x="-17.44" y="-28.105" fill="none" rx="0" ry="0" transform="matrix(1 0 0 1 539.41 33.305)"></rect>
    <path fill="#F5F5F5" fill-rule="evenodd" d="M80.595 11.525a2.254 2.254 0 0 1-2.567-1.894 2.258 2.258 0 0 1 1.894-2.568 2.258 2.258 0 0 1 2.568 1.895 2.254 2.254 0 0 1-1.895 2.567m-3.149-10.41c-9.063 1.372-13.713 10.75-17.119 17.603-.876 1.76-1.661 3.354-2.413 4.56-3.979 6.356-9.642 11.429-15.632 16.796-5.95 5.325-12.067 10.806-16.977 17.939 4.055-1.458 8.82-2.764 11.976-4.12 4.523-1.943 9.502-3.446 13.654-5.814 3.536-2.015 6.79-4.301 9.493-7.05 1.706-1.73 3.122-3.448 4.212-5.094.937-1.412 1.788-3.098 2.428-4.675.454-1.117 1.686-1.411 1.806-.061a6.37 6.37 0 0 1-.07 1.446c-.25 1.673-1.023 3.685-1.877 5.379-1.211 2.398-2.826 4.37-4.743 6.247-2.721 2.671-5.918 4.882-9.363 6.83-4.332 2.448-9.494 3.984-14.167 5.991-3.919 1.687-9.918 3.174-14.164 4.936-1.16.482-2.17.983-3.216 1.644-4.754 3.033-9.622 6.88-15.06 11.899-.918.841-.676 2.338.452 2.86 4.01 1.845 7.703 2.644 11.142 2.644 9.56 0 17.142-6.195 23.94-13.423 5.781-.077 11.19-.847 16.09-2.264l1.048 5.76h-3.653a1.742 1.742 0 1 0 0 3.483l14.179.004c.96 0 1.739-.78 1.739-1.741a1.74 1.74 0 0 0-1.74-1.743l-6.98-.002-1.25-6.856c5.94-2.19 11.008-5.41 14.91-9.558 6.68-7.114 9.71-16.537 8.997-28.006-.242-3.938.913-6.82 2.025-9.609.503-1.257.992-2.48 1.31-3.725 2.33-5.775 7.72-7.97 13.58-9.51.441-.112.48-.72.064-.895C95.73.319 87.153.998 79.967 1.013c-.86 0-1.664-.023-2.52.103"></path>
</svg></svg>