<svg xmlns="http://www.w3.org/2000/svg" version="1.1" xmlns:xlink="http://www.w3.org/1999/xlink" width="2000" height="750" viewBox="0 0 2000 750"><svg xml:space="preserve" width="2000" height="750" data-version="2" data-id="lg_mLYv4qsmhCC5EiTHD1" viewBox="0 0 558 209" x="0" y="0">
    <path fill="#F5F5F5" d="M5.275 185.19v-69.58h29.79q4.61 0 8.43 1.91 3.82 1.92 6.66 5.1 2.85 3.19 4.41 7.15 1.57 3.97 1.57 8.09 0 4.8-1.81 9.11-1.81 4.32-5.1 7.35-3.28 3.04-7.69 4.22l16.86 26.65h-10l-15.88-24.99h-18.42v24.99Zm8.82-32.83h21.07q3.63 0 6.32-2.01 2.7-2 4.22-5.34 1.51-3.33 1.51-7.15 0-3.92-1.76-7.2-1.76-3.29-4.61-5.25-2.84-1.96-6.27-1.96h-20.48Z"></path>
    <rect width="53.12" height="69.58" x="-26.56" y="-34.79" fill="none" rx="0" ry="0" transform="matrix(1 0 0 1 32.335 150.9)"></rect>
    <path fill="#F5F5F5" d="M63.485 170.4q0-4.9 2.8-8.48 2.79-3.58 7.69-5.54t11.37-1.96q3.43 0 7.25.54t6.76 1.62v-3.73q0-5.88-3.53-9.26t-9.99-3.38q-4.22 0-8.09 1.52t-8.18 4.36l-3.14-6.07q5-3.43 10-5.15 5-1.71 10.39-1.71 9.8 0 15.48 5.43 5.68 5.44 5.68 15.15v21.65q0 1.57.64 2.31.64.73 2.11.83v6.66q-1.28.2-2.21.3-.93.1-1.52.1-3.03 0-4.55-1.67t-1.72-3.53l-.19-3.23q-3.34 4.31-8.73 6.66-5.39 2.35-10.68 2.35-5.09 0-9.11-2.1-4.02-2.11-6.27-5.69-2.26-3.57-2.26-7.98m33.32 3.62q1.18-1.37 1.86-2.79.69-1.42.69-2.4v-6.37q-3.04-1.18-6.37-1.82-3.33-.63-6.57-.63-6.56 0-10.63 2.59-4.07 2.6-4.07 7.11 0 2.45 1.33 4.75 1.32 2.31 3.92 3.78 2.59 1.47 6.42 1.47 4.01 0 7.64-1.62t5.78-4.07"></path>
    <rect width="47.24" height="53.01" x="-23.62" y="-26.505" fill="none" rx="0" ry="0" transform="matrix(1 0 0 1 87.605 160.165)"></rect>
    <path fill="#F5F5F5" d="m134.835 185.19-20.09-51.15h9.01l16.07 42.92 16.08-42.92h8.42l-20.09 51.15Z"></path>
    <rect width="49.58" height="51.15" x="-24.79" y="-25.575" fill="none" rx="0" ry="0" transform="matrix(1 0 0 1 140.035 160.115)"></rect>
    <path fill="#F5F5F5" d="M193.825 186.17q-5.78 0-10.53-2.1-4.76-2.11-8.23-5.79-3.48-3.67-5.39-8.47-1.92-4.8-1.92-10.19 0-7.26 3.34-13.23 3.33-5.98 9.26-9.61 5.93-3.62 13.57-3.62 7.74 0 13.48 3.67 5.73 3.68 8.91 9.6 3.19 5.93 3.19 12.79 0 .98-.05 1.91-.05.94-.15 1.43h-42.43q.39 4.99 2.79 8.86 2.4 3.88 6.22 6.08 3.83 2.21 8.24 2.21 4.7 0 8.87-2.36 4.16-2.35 5.73-6.17l7.45 2.06q-1.67 3.72-4.95 6.66-3.29 2.94-7.74 4.61-4.46 1.66-9.66 1.66m-17.25-29.59h34.89q-.39-5-2.84-8.82-2.45-3.82-6.27-5.98-3.82-2.16-8.43-2.16-4.51 0-8.33 2.16-3.82 2.16-6.22 5.98-2.4 3.82-2.8 8.82"></path>
    <rect width="51.75" height="53.01" x="-25.875" y="-26.505" fill="none" rx="0" ry="0" transform="matrix(1 0 0 1 194.13 160.165)"></rect>
    <path fill="#F5F5F5" d="M273.505 185.19h-8.63v-28.61q0-8.14-2.5-11.91-2.5-3.77-7.59-3.77-3.53 0-7.01 1.76-3.48 1.77-6.17 4.75-2.7 2.99-3.87 6.91v30.87h-8.63v-51.15h7.84v10.97q2.06-3.62 5.29-6.27 3.24-2.64 7.35-4.11 4.12-1.47 8.63-1.47 4.41 0 7.4 1.61 2.99 1.62 4.7 4.51 1.72 2.89 2.45 6.81.74 3.92.74 8.53Z"></path>
    <rect width="44.4" height="52.03" x="-22.2" y="-26.015" fill="none" rx="0" ry="0" transform="matrix(1 0 0 1 251.805 159.675)"></rect>
    <path fill="#F5F5F5" d="M315.735 185.68q-6.86 0-12.78-2.99-5.93-2.98-10.34-8.03-4.41-5.05-6.86-11.37-2.45-6.32-2.45-13.08 0-7.06 2.45-13.38 2.45-6.32 6.81-11.22 4.36-4.9 10.29-7.69 5.93-2.8 12.88-2.8 10.1 0 16.66 4.22 6.57 4.21 9.9 10.97l-6.76 4.71q-3.04-6.08-8.33-9.02-5.29-2.94-11.66-2.94-5.29 0-9.61 2.26-4.31 2.25-7.39 6.12-3.09 3.87-4.71 8.77-1.62 4.9-1.62 10.19 0 5.59 1.82 10.54 1.81 4.95 5.14 8.72 3.33 3.77 7.74 5.93 4.41 2.16 9.51 2.16 5.98 0 11.37-3.04 5.39-3.04 10.19-9.31v9.11q-9.41 11.17-22.25 11.17m21.17-28.51h-14.99v-6.67h22.44v34.69h-7.45Z"></path>
    <rect width="61.05" height="70.56" x="-30.525" y="-35.28" fill="none" rx="0" ry="0" transform="matrix(1 0 0 1 314.33 150.9)"></rect>
    <path fill="#F5F5F5" d="M383.455 141.58q-6.47.1-11.41 3.29-4.95 3.18-7.01 8.77v31.55h-8.63v-51.15h8.04v11.86q2.65-5.3 7.01-8.58 4.36-3.28 9.16-3.67h1.67q.68 0 1.17.09Z"></path>
    <rect width="27.05" height="51.54" x="-13.525" y="-25.77" fill="none" rx="0" ry="0" transform="matrix(1 0 0 1 370.43 159.92)"></rect>
    <path fill="#F5F5F5" d="M387.965 170.4q0-4.9 2.79-8.48 2.8-3.58 7.7-5.54t11.36-1.96q3.43 0 7.26.54 3.82.54 6.76 1.62v-3.73q0-5.88-3.53-9.26t-10-3.38q-4.21 0-8.08 1.52t-8.18 4.36l-3.14-6.07q5-3.43 10-5.15 4.99-1.71 10.38-1.71 9.8 0 15.49 5.43 5.68 5.44 5.68 15.15v21.65q0 1.57.64 2.31.64.73 2.11.83v6.66q-1.28.2-2.21.3-.93.1-1.52.1-3.04 0-4.55-1.67-1.52-1.67-1.72-3.53l-.2-3.23q-3.33 4.31-8.72 6.66-5.39 2.35-10.68 2.35-5.1 0-9.11-2.1-4.02-2.11-6.28-5.69-2.25-3.57-2.25-7.98m33.32 3.62q1.18-1.37 1.86-2.79.69-1.42.69-2.4v-6.37q-3.04-1.18-6.37-1.82-3.33-.63-6.57-.63-6.56 0-10.63 2.59-4.07 2.6-4.07 7.11 0 2.45 1.33 4.75 1.32 2.31 3.92 3.78 2.59 1.47 6.41 1.47 4.02 0 7.65-1.62 3.62-1.62 5.78-4.07"></path>
    <rect width="47.24" height="53.01" x="-23.62" y="-26.505" fill="none" rx="0" ry="0" transform="matrix(1 0 0 1 412.085 160.165)"></rect>
    <path fill="#F5F5F5" d="M473.815 186.17q-6.27 0-11.17-3.13-4.9-3.14-7.75-7.94v30.97h-8.62v-72.03h7.64v9.6q3.04-4.7 7.94-7.59 4.9-2.89 10.68-2.89 5.3 0 9.71 2.15 4.41 2.16 7.64 5.88 3.23 3.73 5.05 8.48 1.81 4.75 1.81 9.95 0 7.25-2.89 13.32-2.89 6.08-8.09 9.66-5.19 3.57-11.95 3.57m-2.65-7.44q3.82 0 6.91-1.62 3.09-1.62 5.29-4.31 2.21-2.7 3.38-6.13 1.18-3.43 1.18-7.05 0-3.83-1.32-7.26-1.33-3.43-3.73-6.07-2.4-2.65-5.58-4.17-3.19-1.52-6.91-1.52-2.35 0-4.85.89-2.5.88-4.76 2.49-2.25 1.62-3.82 3.68-1.57 2.06-2.06 4.41v14.6q1.47 3.33 3.92 6.08 2.45 2.74 5.69 4.36 3.23 1.62 6.66 1.62"></path>
    <rect width="50.47" height="72.91" x="-25.235" y="-36.455" fill="none" rx="0" ry="0" transform="matrix(1 0 0 1 472.01 170.115)"></rect>
    <path fill="#F5F5F5" d="M551.725 185.19h-8.63v-28.61q0-7.84-2.79-11.76t-7.99-3.92q-3.33 0-6.71 1.76-3.38 1.77-5.93 4.75-2.55 2.99-3.72 6.91v30.87h-8.63v-71.54h8.63v31.36q3.04-5.48 8.28-8.67 5.24-3.18 11.32-3.18 4.6 0 7.69 1.61 3.09 1.62 4.95 4.56 1.86 2.94 2.7 6.81.83 3.87.83 8.48Z"></path>
    <rect width="44.4" height="71.54" x="-22.2" y="-35.77" fill="none" rx="0" ry="0" transform="matrix(1 0 0 1 530.025 149.92)"></rect>
    <path fill="#F5F5F5" fill-rule="evenodd" d="M304.586 12.64a2.278 2.278 0 0 1-2.594-1.913 2.282 2.282 0 0 1 1.914-2.595 2.281 2.281 0 0 1 2.595 1.915 2.278 2.278 0 0 1-1.915 2.594m-3.182-10.52c-9.159 1.387-13.857 10.864-17.3 17.789-.885 1.778-1.678 3.389-2.438 4.608-4.02 6.423-9.744 11.55-15.797 16.973-6.012 5.381-12.194 10.92-17.156 18.128 4.098-1.473 8.912-2.793 12.102-4.163 4.572-1.964 9.602-3.483 13.799-5.875 3.573-2.037 6.86-4.347 9.592-7.124 1.724-1.75 3.155-3.485 4.257-5.148.946-1.427 1.806-3.131 2.453-4.724.46-1.13 1.705-1.427 1.826-.063.037.442.008.934-.07 1.462-.255 1.69-1.035 3.723-1.898 5.436-1.224 2.423-2.856 4.415-4.793 6.313-2.75 2.699-5.98 4.933-9.462 6.9-4.378 2.475-9.594 4.027-14.316 6.056-3.96 1.704-10.023 3.207-14.313 4.988-1.173.486-2.193.993-3.25 1.661-4.805 3.065-9.724 6.952-15.22 12.024-.927.85-.682 2.363.457 2.89 4.052 1.866 7.785 2.673 11.26 2.673 9.661 0 17.323-6.26 24.193-13.565 5.842-.078 11.307-.856 16.26-2.288l1.059 5.82h-3.692a1.76 1.76 0 1 0 0 3.52l14.328.004c.97 0 1.757-.787 1.757-1.759 0-.973-.784-1.76-1.757-1.76l-7.054-.003-1.264-6.928c6.004-2.213 11.125-5.467 15.067-9.66 6.75-7.188 9.813-16.71 9.092-28.3-.244-3.98.923-6.892 2.047-9.71.508-1.271 1.002-2.506 1.323-3.765 2.355-5.836 7.802-8.055 13.724-9.61.446-.114.485-.727.065-.905-6.405-2.7-15.071-2.013-22.334-1.998-.868 0-1.681-.023-2.547.104"></path>
</svg></svg>