<?xml version="1.0" encoding="UTF-8"?>
<svg width="1200pt" height="1200pt" version="1.1" viewBox="0 0 1200 1200" xmlns="http://www.w3.org/2000/svg">
 <path d="m1045.4 665.61c-33.457-11.039-73.43-26.508-113.22-43.066 0 0 125-25.895 110.86-40.355-14.137-14.352-221.72-7.6328-221.72-7.6328-47.039-21.191-80.125-36.949-80.125-36.949s14.891-16.164-28.105-35.039c-35.16-15.457-130.85-57.828-130.85-57.828s5.7617-23.699-74.195-52.117c-2.2578-0.80469-4.5117-1.6094-6.7812-2.4102-0.17969-0.097656-0.48047-0.19141-0.64844-0.19141-15.539-4.8594-32.734-6.4688-49.945-5.0508-32.988-21.168-79.691-45.059-79.691-45.059l-5.4102-75.613c12.77-31.402 85.836-26.797 85.836-26.797s-7.1992-26.375-30.793-33.758c-23.617-7.3906-57.77-12.215-57.77-12.215l-41.41-24.863c-67.246-23.41-103.71-0.625-103.71-0.625s-38.617 46.5-51.469 75.383l-38.711 268.99c1.4297 37.547 116.52 223.73 116.61 223.95 0 0 64.105 33.852 84.973 40.355 9.875 3.1211 20.051 5.7227 30.383 8.0508-0.058594 0.23828-0.20312 0.45703-0.22656 0.71875-0.61328 6.4805-4.5234 58.402 21.996 93.672l-53.617 135.65c-0.058594 0.023438-0.12109 0.023438-0.16797 0.058594-0.10938 0.046875-1.1875 0.68359-3.2031 1.7773-2.1602 0.99609-5.3984 2.3984-9.8398 3.5039-8.7461 2.4375-21.695 4.043-34.645 4.4023-12.637 0.34766-27.145-0.85156-37.957 6.9727-2.2695 1.6562-4.043 3.5508-5.3047 5.3516-1.3438 1.7539-2.125 3.5508-2.8203 4.9336-1.1289 2.7969-1.5977 4.4023-1.5977 4.4023-0.035156 0.17969 0 0.39453 0.16797 0.50391 0.17969 0.13281 0.44531 0.070313 0.5625-0.12109 0 0 0.96094-1.4414 2.8203-3.6836 0.99609-1.0195 2.0742-2.2695 3.6602-3.4062 1.4531-1.2344 3.2539-2.3984 5.3398-3.2031 10.535-4.957 23.664-0.34766 34.535 0.88672 13.859 1.5586 27.875 1.2461 38.797-0.57422 5.1953-0.83984 9.625-2.2578 12.852-3.5039 0.88672 0.625 1.8008 1.1758 2.8203 1.7773 1.9922 1.2852 3.7578 1.6445 5.9023 2.3516 6.3125 2.207 13.801 1.9805 20.375 1.668 6.9727-0.33594 13.895-1.2227 20.855-1.668 6.2031-0.38281 11.676 0.58984 15.277 6.168 1.0312 1.6211 1.3203 2.7852 1.3203 2.7852 0.035156 0.14453 0.16797 0.26562 0.33594 0.30078 0.22656 0.035156 0.44531-0.12109 0.48047-0.33594 0.011719-0.058594 0.20312-1.2617-0.19141-3.4336-0.12109-1.1289-0.53906-2.3867-1.1641-3.8867-0.61328-1.4648-1.7539-3-3.1445-4.4648-3.7305-3.1328-7.5352-5.0391-12.434-5.7109-11.914-1.6094-25.141-1.5859-36.191-6.8281-4.8594-2.3047-2.9766-3.5625-2.6406-6.1094l97.344-217.73c0.26562-0.61328 0.39453-2.0039 0.39453-2.6758 0-0.023438-0.011719-0.046875-0.011719-0.085938 28.031 0.99609 56.398-0.89844 84.191-5.6523v0.023437c0.61328 2.6641 14.352 60.277 62.207 93.504l-37.836 131.5c-0.22656 0.10938-0.49219 0.10938-0.70703 0.25391-0.10938 0.046876-1.1875 0.68359-3.2031 1.7773-2.1484 0.99609-5.3984 2.3984-9.8398 3.5039-8.7617 2.4375-21.695 4.043-34.656 4.4023-12.637 0.34766-27.133-0.85156-37.945 6.9727-2.2812 1.6562-4.0664 3.5508-5.3164 5.3516-1.332 1.7539-2.125 3.5508-2.8086 4.9336-1.1289 2.7969-1.5977 4.4023-1.5977 4.4023-0.046875 0.17969 0 0.39453 0.15625 0.50391 0.19141 0.13281 0.44531 0.070312 0.57422-0.12109 0 0 0.96094-1.4414 2.8086-3.6836 0.99609-1.0195 2.0742-2.2695 3.6719-3.4062 1.4414-1.2344 3.2539-2.3984 5.3398-3.2031 10.535-4.957 23.664-0.34766 34.535 0.88672 13.848 1.5586 27.863 1.2461 38.797-0.57422 5.1953-0.83984 9.625-2.2578 12.852-3.5039 0.875 0.625 1.8008 1.1758 2.8203 1.7773 1.9922 1.2852 3.7578 1.6445 5.9023 2.3516 6.3008 2.207 13.789 1.9805 20.363 1.668 6.9727-0.33594 13.906-1.2227 20.867-1.668 6.1914-0.38281 11.676 0.58984 15.266 6.168 1.043 1.6211 1.3203 2.7852 1.3203 2.7852 0.035157 0.14453 0.16797 0.26562 0.33594 0.30078 0.22656 0.035157 0.44531-0.12109 0.48047-0.33594 0.011718-0.058594 0.20312-1.2617-0.19141-3.4336-0.12109-1.1289-0.53906-2.3867-1.1523-3.8867-0.60156-1.4648-1.7539-3-3.1445-4.4648-3.7422-3.1328-7.5469-5.0391-12.434-5.7109-11.93-1.6094-25.152-1.5859-36.203-6.8281-5.0039-2.375-2.832-3.6367-2.6055-6.3477l59.328-168.11c0.30078-0.92578 0.32422-1.9062 0.085937-2.8555-12.742-47.832-3.6133-80.09-3.5273-80.426 0.40625-1.3789 0.011718-2.7461-0.71875-3.9492 12.492-6.0703 24.59-12.875 36.07-20.723 23.207-15.852 42.215-43.801 46.766-50.832 13.379 0.89844 26.855 1.7031 40.332 2.4102 0 0 213.25 140.34 267.46 140.34 22.43 0-141.31-134.33-141.31-134.33 80.605 3.0117 149.04 3.7188 177.89 0.70703 61.297-6.207 0.011719-30.098 0.011719-30.098zm-777.78-422.91c-22.391 0-16.512-20.074-16.512-20.074s17.688-12.551 38.902 0c0 0-7.0664 20.074-22.391 20.074z"/>
</svg>
