<?xml version="1.0" encoding="UTF-8"?>
<svg width="1200pt" height="1200pt" version="1.1" viewBox="0 0 1200 1200" xmlns="http://www.w3.org/2000/svg">
 <path d="m1096.3 1086.6c12.535 3.9648 24.656 9.1406 36.188 15.449 15.762 8.4141 31.555 16.797 46.754 26.219-37.254-49.027-74.48-98.078-111.68-147.15 9.4336 3.0938 17.805 8.6953 27.254 11.852 22.164 10.191 45.656 17.211 69.781 20.848 4.5391 1.0469 9.3047 0.054687 13.047-2.7148 2.9844-3.7031 0.078125-8.2891-1.9297-11.648-7.7383-9.5586-16.664-18.09-26.566-25.387-33.52-26.91-65.324-55.828-97.836-83.945-27.645-24.758-55.875-48.902-82.828-74.43-4.4102-4.7578-11.648-2.293-17.113-4.8516-23.223-10.242-45.406-22.691-66.25-37.176-55.605-36.031-110.73-72.953-163.07-113.61-20.164-14.891-39.004-31.488-56.312-49.609 87.883 60.426 176.45 119.85 265.71 178.27h-0.003906c11.078 7.4531 22.855 13.809 35.168 18.98 6.3594-0.92578 4.4102-8.6484 2.9688-12.891h-0.003907c-8.6797-19.668-18.508-38.805-29.434-57.32-31.086-56.391-64.836-111.28-100.6-164.79-16.219-25.246-31.695-50.961-47.332-76.551-28.422-49.457-62.852-95.211-102.5-136.22-24.484-23.578-51.141-44.793-79.609-63.363-24.113-16.043-48.684-31.477-71.652-49.168-14.637-11.012-28.418-23.121-41.223-36.219 13.926 8.3203 29.062 14.422 44.867 18.086-7.5352-5.4805-15.496-10.379-22.48-16.547-23.777-18.984-42.824-43.227-55.641-70.82 4.832 3.5781 9.4492 7.4297 13.832 11.539-17.391-27.883-41.43-51.02-69.957-67.332-30.762-16.738-65.516-24.75-100.5-23.176-37.27 0.16016-73.34 13.188-102.11 36.879-4.457 3.4531-7.7383 8.3516-12.512 11.336-32.254 4.5234-63.848 12.91-94.102 24.977-32.965 12.777-60.469 36.613-77.805 67.43 14.879 2.4531 29.887 4.0586 44.949 4.8008 39.719 2.6367 79.531 2.8242 119.3 3.9883 5.4648-0.082031 10.863 1.1875 15.715 3.707 11.223 6.8867 20.578 16.422 27.254 27.77 16.07 27.672 22.449 59.918 18.117 91.621-3.3398 23.539-9.8711 46.512-19.406 68.293 8.4609-10.328 15.512-21.742 23.422-32.48 1.3984 12.121 2.0898 24.332 3.8789 36.422 9.5273 67.387 32.176 132.26 66.66 190.93 31.277 54.637 70.996 103.98 117.68 146.22 22.137 20.203 45.355 39.168 67.695 59.141h-0.003906c14.723 12.617 27.742 27.09 38.73 43.062 4.3555 7.6211 4.5977 16.922 0.64453 24.758-6.1328 12.375-13.227 24.254-21.211 35.527-17.945 26.406-36.578 52.324-54.914 78.449-6.6406 8.9805-12.891 18.273-20.234 26.672h-0.003906c-5.5156 4.4141-11.832 7.7227-18.602 9.75-13.844 5.6562-28.152 10.102-42.766 13.281-6.8633 1.707-14.062 1.4727-20.801-0.67188-7.5508-2.3242-14.395-7.6289-22.668-6.4844-7.7422-4.2109-16.754-5.4492-25.344-3.4883-8.5898 1.9648-16.168 6.9922-21.316 14.148 11.406-4.6016 23.977-5.4688 35.906-2.4805-1.2109 5.4297-1.1953 11.059 0.046875 16.484-11.965-6.0703-26.16-5.8203-37.898 0.67188-10.062 6.5508-16.602 17.316-17.77 29.266 5.8945-8.8203 14.707-15.285 24.891-18.262 10.18-2.9805 21.086-2.2852 30.809 1.9648-0.69922 3.7148 0.44141 7.5391 3.0625 10.266 5.2891 4.5703 12.559 2.1836 18.746 1.6016 12.777-2.5117 25.699-4.3008 38.398-7.2227v0.003906c13.309-3.5547 26.281-8.2539 38.777-14.051 17.633-5.3633 36.195-6.9727 54.492-4.7266-8.6914 8.0859-18.199 15.25-28.371 21.367-11.688 4.4414-24.188 6.3516-36.672 5.6055-4.3789-0.125-7.3633 3.375-10.629 5.6992-9.1094-2.0508-18.656-0.58984-26.734 4.0977-11.473 7.043-18.781 19.246-19.578 32.684 9.6406-15.566 26.75-24.918 45.055-24.633-0.082031 5.9961 2.4805 11.719 7.0039 15.652 6.3516 3.0117 13.684 3.168 20.156 0.42578 12.305-3.1641 24.32-7.3555 35.922-12.527 8.043-4.7891 15.371-10.695 21.758-17.539 4.8906-4.2188 10.613-7.3711 16.797-9.2461 20.246-6.2812 41.598-8.1602 62.625-5.5078 15.598 2.4961 31.484 2.5547 47.098 0.17188 3.2539-1.6328 5.8359-4.3477 7.3086-7.6758 1.4727-3.3281 1.7422-7.0625 0.76172-10.566 15.93-3.125 32.445 0.4375 45.668 9.8594-4.2422-8.6133-11.285-15.523-19.977-19.602s-18.508-5.0781-27.844-2.8359c-2.1641-1.4844-4.9219-1.8125-7.375-0.87891-7.5977 3.1172-15.645 4.9805-23.832 5.5273-15.188 1.1406-30.457-0.40625-45.105-4.5664 8.2734-16.988 15.73-34.383 24.461-51.148 22.922-44.195 46.312-88.184 72.23-130.68 6.7383-13.16 17.293-23.98 30.281-31.039 12.039-4.4414 25.402-3.4922 36.691 2.6055 17.402 9.0977 31.727 23.133 41.18 40.348-0.39453-7.8906 0.58984-15.793 2.9023-23.344 1.1016-4.5898 5.4766-7.6211 10.156-7.0352 13.578 4.3789 25.402 12.969 33.77 24.523 13.801 16.09 26.75 32.906 40.254 49.25 53.738 66.629 107.39 133.33 160.95 200.1 7.1758 8.4766 13.594 17.691 21.461 25.527 29.844 0.09375 59.719-0.28125 89.562 0-13.469-16.828-26.875-33.711-40.223-50.645v-0.003906c6.9414-2.6719 14.641-2.6172 21.539 0.15625zm-816.38-952.16c-0.21484 4.3398-2.8008 8.207-6.7266 10.062-3.9297 1.8555-8.5586 1.3984-12.047-1.1914-3.3242-2.6641-4.9883-6.8906-4.375-11.105 0.61328-4.2148 3.4102-7.793 7.3555-9.3984 3.707-1.4922 7.9258-0.95703 11.141 1.4102 3.2188 2.3711 4.9805 6.2383 4.6562 10.223zm476.49 409.7c-20.457 2.375-41-3.6953-56.879-16.816-8.6562-6.2031-16.359-13.648-22.855-22.086 23.289 18.84 50.555 32.141 79.734 38.902zm-73.785-10.926v-0.003906c12.598 4.5508 25.547 8.0703 38.715 10.52-8.2695-0.19141-16.5-1.1602-24.586-2.8867-23.301-3.9453-45.879-11.355-66.988-21.98-9.6797-4.3906-18.949-9.6289-27.711-15.652 26.305 11.43 53.199 21.445 80.57 30zm-322.73-57.18c-17.645-22.75-30.312-48.961-37.176-76.926-4.8477-18.402-4.3516-37.805 1.4297-55.934 5.4805-16.078 18.461-28.465 34.773-33.188 22.789-4.7695 46.531 0.125 65.578 13.516 18.047 11.949 32.789 28.262 42.859 47.426-15.52-20.535-37.727-35.004-62.781-40.895-11.445-2.7031-23.484-1.1641-33.879 4.332-17.652 11.098-28.305 30.535-28.168 51.383 1.0625 23.938 7.543 47.316 18.949 68.387 14.316 27.965 32.008 54.062 52.688 77.711-20.059-16.582-38.258-35.297-54.273-55.812zm161.8 57.914c-46.934-16.531-87.77-46.871-117.15-87.035-10.445-14.285-19.777-29.355-27.91-45.074 53.879 59.449 121.45 104.86 196.85 132.28 9.5781 3.9961 19.457 7.2266 29.547 9.6562-27.484 1.5977-55.027-1.7305-81.34-9.8281zm81.133 344.72c-3.6016 11.371-8.6953 22.215-15.148 32.25-20.379 33.926-40.848 67.836-61.98 101.3-4.5547 8.1523-10.594 15.383-17.805 21.32-9.7344-1.1992-19.168-4.168-27.832-8.7617 17.629-27.805 36.031-55.105 53.895-82.766 16.172-25.59 32.48-51.117 50.176-75.688 3.9414-5.3867 7.4414-11.051 11.211-16.547h-0.003906c6.5781 8.082 9.3125 18.629 7.4883 28.887zm-24.098-359.32c-7.6602-4.0586-15.027-8.6523-22.039-13.754 32.574 10.297 64.727 22.059 97.742 30.941 6.3125 1.7266 12.73 2.9844 19.199 4.082-32.891 0.71484-65.461-6.5859-94.902-21.27z"/>
</svg>
