<?xml version="1.0" encoding="UTF-8"?>
<svg width="1200pt" height="1200pt" version="1.1" viewBox="0 0 1200 1200" xmlns="http://www.w3.org/2000/svg">
 <path d="m784.79 765.3c-22.477 64.656-61.164 115.77-110.23 159.45-10.859 9.6719-23.195 17.699-35.832 25.535 37.535-59.52 68.387-121.43 79.32-191.33 3.625-23.195 4.0312-46.895 5.9023-70.355-0.9375-0.13281-1.8828-0.25391-2.8203-0.38281-0.61328 3.5898-1.2344 7.1758-1.8359 10.777-9.9492 59.699-34.969 113.14-68.461 162.88-40.129 59.566-87.348 113.04-140.51 161.3-1.0195 0.92578-2.1367 1.7383-4.6562 1.9219 22.043-49.668 44.09-99.336 66.133-149.02-10.5 4.5352-17.41 12.227-23.617 20.832-20.832 28.859-41.258 58.055-62.953 86.258-16.094 20.914-34.332 40.129-56.09 55.441-6.1328 4.3203-13.117 7.7539-20.172 10.297-7.8125 2.8203-14.113-1.1172-13.777-9.3359 0.48047-11.617 1.6445-23.578 5.0039-34.633 8.1367-26.723 22.355-50.605 38.004-73.609 0.89844-1.3203 1.8008-2.6289 1.8594-5.0508-2.2812 1.8711-4.8359 3.4805-6.7812 5.6406-18.406 20.426-36.625 41.027-55.094 61.402-10.379 11.461-20.965 22.754-31.836 33.742-3.168 3.1914-7.4414 5.543-11.605 7.4414-11.23 5.125-19.078 1.3203-21.898-10.715-2.9648-12.719-1.0195-25.32 2.3516-37.68 9.3242-34.152 27.516-63.602 50.195-90.145 16.957-19.848 35.543-38.305 53.52-57.266 2.1953-2.3164 5.0898-3.9844 6.6484-7.1055-33.359 20.578-64.98 43.309-96.395 69.938 1.0664-5.7461 1.5469-9.8867 2.6172-13.871 6.2148-23.113 19.129-42.383 34.922-59.93 17.953-19.957 39.348-35.688 61.766-50.172 4.043-2.6172 8.0039-5.3633 12.012-8.0508-0.28906-0.61328-0.57422-1.2227-0.86328-1.8242-26.293 10.859-52.598 21.719-78.887 32.578-0.5625-0.66016-1.1172-1.3203-1.6797-1.9805 10.344-12.312 20.27-25.02 31.141-36.852 14.879-16.176 30.805-31.391 45.695-47.555 14.688-15.949 27.168-33.348 30.527-55.691 2.4844-16.547-0.97266-32.242-6.793-47.496-13.105-34.285-34.621-63.18-59.688-89.375-15.48-16.188-32.508-30.898-48.828-46.285-4.8477-4.5703-10.234-6.7695-17.219-7.3203-72.277-5.7109-143.21-19.332-213.28-37.598-5.543-1.4414-9.6133-0.80469-14.016 2.4844-14.762 11.027-29.664 21.852-46.559 34.246 1.8477-14.531 2.4844-27.816 5.3516-40.598 11.207-49.934 40.078-88.246 80.461-118.39 43.43-32.41 93.047-50.578 145.51-61.766 28.535-6.0859 57.383-9.707 86.629-10.117 3.6133-0.046875 7.7148-1.5977 10.727-3.6836 56.977-39.59 119.02-67.078 187.87-77.629 77.352-11.855 151.63 0.011719 222.49 32.352 109.07 49.801 184.39 131.96 227.52 243.28 22.152 57.168 46.836 113.05 74.555 167.7 17.207 33.938 29.891 69.551 36.098 107.28 8.2422 50.172-1.1992 95.641-35.641 134.5-1.3672 1.5352-2.6875 3.1094-5.1016 4.0664 2.2578-8.6641 4.8008-17.258 6.7305-25.992 13.055-58.906 7.4023-116.48-14.699-172.18-10.621-26.762-23.785-52.547-36.551-78.395-21.203-42.926-37.922-87.672-55.848-131.98-50.746-125.41-141.62-207.36-271.85-243.77-96.277-26.914-187.63-9.7695-274.33 37.453-7.0547 3.8398-13.969 7.957-22.414 12.77 24.238 8.6875 45.707 19.488 63.086 34.98 7.7383-8.6875 14.566-18.145 23.148-25.598 18.406-15.973 41.172-22.285 64.738-25.969 41.027-6.4219 80.484 1.4883 119.48 13.32 7.4648 2.2695 14.879 4.7383 22.309 7.1055 0.28906-0.49219 0.57422-0.98438 0.85156-1.4883-17.113-9.5156-34.223-19.043-51.324-28.559 0.3125-0.9375 0.625-1.8828 0.9375-2.8203 16.668 3.9375 33.73 6.6602 49.922 12.012 72.07 23.809 130.43 67.633 178.64 125.46 29.219 35.039 52.906 73.488 68.352 116.66 1.2852 3.5898 1.9453 7.3906 2.8906 11.102-0.66016 0.48047-1.3203 0.96094-1.9922 1.4414-9.3711-8.7969-18.742-17.594-28.117-26.387 41.953 48.312 75.18 100.89 83.398 166.25 0.66016-0.10938 1.3086-0.22656 1.9688-0.33594 0.81641-13.211 1.5-26.438 2.5938-39.625 0.21484-2.6523 2.0391-5.1602 3.1211-7.7383 2.1602 1.8477 5.4727 3.2891 6.3008 5.6172 5.375 15.191 11.102 30.359 15.047 45.949 10.488 41.508 18.07 83.578 20.426 126.39 1.7148 31.273-1.7266 61.98-14.52 90.926-3.6367 8.2305-9.1797 15.613-15.359 22.969 0.78125-31.164 0.78125-61.488-17.305-88.645-0.69531 13.992-1.1992 27.984-2.1367 41.965-2.1953 32.879-8.9766 64.535-26.387 93.098-7.8828 12.938-17.23 24.602-31.922 33.07 22.777-57.191 32.508-113.66 3.3125-170.72-1.8594 54.961-13.559 106.32-51.961 148.32-11.207 12.254-21.637 19.621-32.242 22.68 14.16-26.27 26.004-52.621 31.957-81.145 5.9648-28.586 6.1211-57.168-0.57422-86.711-29.27 59.352-78.816 95.797-133.95 126.65 2.8672-3.9375 5.6641-7.9219 8.6055-11.809 34.031-45.145 54.637-96.059 65.316-151.31 2.6172-13.559 6-26.965 9.4219-42.145-3.9727 4.2734-7.9688 7.1406-10.02 11.027-8.4961 16.066-17.762 31.922-24.266 48.816-14.219 36.949-28.559 73.691-51.359 106.44-3.8281 5.4961-8.0273 10.738-12.07 16.078-0.50391 0.66016-1.1406 1.2109-2.2812 1.5586 12.016-36.859 26.246-73.246 19.191-115.33zm-530.33-472.01c0.046874 0.35938 0.097656 0.73047 0.14453 1.0938-23.93 15.625-48.168 30.805-71.699 46.992-23.711 16.32-46.223 34.234-63.996 57.434 7.7773-2.4258 15.121-5.5547 22.57-8.4258 38.676-14.844 78.793-23.184 120.02-26.398 38.398-3 76.812-2.6758 114.93 2.9297 25.777 3.7812 51.289 9.3828 76.957 13.945 2.3984 0.43359 5.0742-0.71875 7.6211-1.1289-0.625-2.5078-0.82812-5.2578-2.0039-7.4766-1.1523-2.1836-3.168-3.9727-5.0156-5.6992-11.578-10.777-25.246-18.301-40.488-21.684-20.699-4.5977-41.762-7.5352-62.629-11.387-16.883-3.1211-30.504-10.957-36.648-27.984-4.7383-13.129 0.085938-21.938 13.754-23.363 9.9727-1.043 20.387-0.73047 30.289 0.89844 18.422 3.0234 36.574 7.5977 54.926 11.113 2.6406 0.50391 5.6992-1.2734 8.5781-1.9805-1.8125-2.3047-3.1445-5.4961-5.5078-6.7422-6.707-3.5391-13.895-6.1797-20.773-9.4219-1.957-0.92578-3.4922-2.7109-5.2188-4.1172 9.0586-0.9375 17.27-0.070313 25.488 0 2.2422 0.023437 6.2891-2.2695 6.3477-3.6484 0.10938-2.3867-1.6562-6.1562-3.6719-7.0938-4.5-2.0898-9.5898-3.3477-14.555-3.9375-28.922-3.4453-57.742-2.1133-86.398 2.7227-36.852 6.2148-72.457 16.32-105.27 34.812-2.1719 1.2227-4.2227 2.6641-6.3242 4.0078 0.23828 0.45703 0.48047 0.91016 0.73047 1.3555 15.941-2.2461 31.891-4.5391 47.84-6.8164zm33.047 140.39c4.6211 3.5742 7.2461 6.6953 10.586 7.9453 6.6484 2.4844 13.57 4.6562 20.578 5.6758 41.762 6.0703 83.832 6.9961 125.95 6.707 4.3672-0.023437 8.8086-0.50391 13.078-1.4023 1.6211-0.33594 3.5156-2.2695 4.0195-3.875 0.30078-0.9375-1.6328-3.1094-3.0234-3.9375-1.7031-1.0078-3.875-1.5117-5.8906-1.6562-9.2266-0.61328-18.48-0.80469-27.684-1.5859-4.4023-0.37109-8.7227-1.7148-13.078-2.6172 0.12109-0.69531 0.23828-1.3906 0.35938-2.0742 6.707-1.5 13.5-2.7109 20.09-4.6211 2.6172-0.75781 4.7891-3.0586 7.1641-4.6562-1.6445-2.3398-2.8086-5.375-5.0156-6.9102-8.9023-6.1914-18.191-11.832-27.215-17.867-2.4727-1.6445-4.5117-3.9375-6.7422-5.9297 0.35938-0.85156 0.73047-1.7031 1.0938-2.543 5.4375 0.79297 10.906 1.4297 16.32 2.4102 26.664 4.8359 52.246 13.262 77.438 23.113 2.6758 1.043 7.9922 0.3125 9.5039-1.6211 3.0703-3.9102 0.30078-8.1484-3.5039-10.402-4.3203-2.5664-9.0352-4.6211-13.812-6.2266-30.77-10.355-62.664-15.504-94.691-19.777-45.816-6.1094-91.715-7.4531-137.62-0.99609-7.5586 1.0664-15 3.0977-22.488 4.668 0.085937 0.57422 0.15625 1.1406 0.23828 1.7148 30.312 1.9922 60.758 3.1914 89.594 13.871-14.605 0.42187-29.137-0.046876-43.633 0.60156-8.207 0.35938-16.379 2.3281-24.457 4.0938-1.7266 0.38281-4.0938 2.9883-4.1172 4.6094-0.023438 1.6445 2.1602 4.0195 3.9492 4.8242 3.3125 1.4883 6.9961 2.5664 10.609 2.9297 20.461 2.0391 40.945 3.8047 61.402 5.6875 3.2148 0.30078 6.4336 0.74219 9.6484 1.0664 2.9414 0.28906 5.8789 0.50391 8.8203 0.75781-0.035156 0.57422-0.070313 1.1523-0.097656 1.7266-18.449 1.0039-37.23-0.74609-57.379 6.2969zm383.17-89.723c0.66016 0.32422 1.3086 0.66016 1.9688 0.98438 2.0039-1.0781 4.0078-2.1602 6.0117-3.2383 28.094-15.266 55.559-14.375 82.367 3.2266 1.5469 1.0078 2.9141 2.4961 4.5977 3.0234 1.9805 0.625 4.2109 0.43359 6.3359 0.58984-0.14453-2.125 0.37109-4.6211-0.5625-6.3008-1.6562-2.9648-3.9609-5.6875-6.4336-8.0508-18.73-17.93-41.184-28.391-66.672-32.398-8.3984-1.3203-13.754 1.1758-17.113 9.5742-4.2109 10.57-7.0664 21.691-10.5 32.59zm-89.148-77.258c-30.469 0.011719-54.77 23.832-54.613 53.531 0.15625 29.027 23.891 52.273 53.375 52.246 29.398-0.023437 53.652-23.914 53.746-52.945 0.10156-29.395-23.215-52.844-52.508-52.832zm-117.09 683.27c27.926-63.238 60.77-123.82 98.688-181.63-48.852 51.875-87.359 109.38-98.688 181.63zm159.83-180.49c34.309-40.789 43.285-115.12 21.73-153.84 8.6406 54.551-0.46875 105.08-21.73 153.84zm-57.133-63.18c0.69531 0.070313 1.3789 0.14453 2.0742 0.20312 18.898-41.797 7.7891-98.027-20.617-112.77 4.4531 11.281 11.711 23.629 13.98 36.84 3.3711 19.691 3.2891 39.973 4.5117 60.012 0.32422 5.2227 0.050781 10.465 0.050781 15.711zm-153.36-388.21c-21-3.8984-41.543-8.7227-60.961-17.746-3.5156-1.6328-7.332-2.8555-11.148-3.5156-5.4727-0.94922-8.1133 2.5195-5.4375 7.4531 1.7891 3.3008 4.5859 6.4805 7.6914 8.5938 22.25 15.148 46.129 9.3906 69.855 5.2148zm355.46 332.54c16.559-35.438 2.1719-70.211-36.852-91.152 23.293 25.98 38.57 55.129 36.852 91.152z"/>
 <path d="m579.67 365.58c-25.598-0.070313-46.262-20.688-46.188-46.078 0.070313-25.969 21.719-47.258 47.953-47.148 25.488 0.097657 46.801 21.672 46.391 46.957-0.40625 25.582-22.031 46.344-48.156 46.27zm0.80469-83.324c-4.5117 1.2852-9.3594 2.0156-13.609 4.0312-7.4141 3.5039-7.8008 11.891-1.1758 16.621 7.6797 5.4727 24.203 4.8008 31.309-1.2734 5.9414-5.0742 5.125-13.223-2.125-16.211-4.3438-1.7891-9.3008-2.1133-14.398-3.168z"/>
</svg>
